<svg xmlns="http://www.w3.org/2000/svg" version="1.1" xmlns:xlink="http://www.w3.org/1999/xlink" xmlns:svgjs="http://svgjs.dev/svgjs" width="1500" height="587" viewBox="0 0 1500 587"><g transform="matrix(1,0,0,1,-0.9090909090909918,-0.6863771612438541)"><svg viewBox="0 0 396 155" data-background-color="#000000" preserveAspectRatio="xMidYMid meet" height="587" width="1500" xmlns="http://www.w3.org/2000/svg" xmlns:xlink="http://www.w3.org/1999/xlink"><g id="tight-bounds" transform="matrix(1,0,0,1,0.2400000000000091,0.18124098806268307)"><svg viewBox="0 0 395.52 154.63751802387463" height="154.63751802387463" width="395.52"><g><svg viewBox="0 0 395.52 154.63751802387463" height="154.63751802387463" width="395.52"><g transform="matrix(1,0,0,1,0,113.60538971871641)"><svg viewBox="0 0 395.52 41.03212830515821" height="41.03212830515821" width="395.52"><g id="textblocktransform"><svg viewBox="0 0 395.52 41.03212830515821" height="41.03212830515821" width="395.52" id="textblock"><g><svg viewBox="0 0 395.52 41.03212830515821" height="41.03212830515821" width="395.52"><g transform="matrix(1,0,0,1,0,0)"><svg width="395.52" viewBox="2.3 -35.5 346.01 35.9" height="41.03212830515821" data-palette-color="#89939e"><path d="M18.1 0.3L18.1 0.3Q10.85 0.3 6.58-4.6 2.3-9.5 2.3-17.68 2.3-25.85 6.35-30.68 10.4-35.5 17.65-35.5L17.65-35.5Q22.25-35.5 27-33.7L27-33.7 26.1-30.6Q24.4-31.3 21.65-31.78 18.9-32.25 17.4-32.25L17.4-32.25Q12.15-32.25 9.1-28.4 6.05-24.55 6.05-18 6.05-11.45 9.28-7.2 12.5-2.95 17.55-2.95L17.55-2.95Q21.1-2.95 24.25-3.95L24.25-3.95 24.25-14.5 16.95-14.5 16.95-17.75 28-17.75 28-2.4Q23.3 0.3 18.1 0.3ZM54.2-11.7L54.2-11.7 38.25-11.7Q38.25-6.9 40.52-4.9 42.8-2.9 46.25-2.9L46.25-2.9Q48-2.9 48.7-3.08 49.4-3.25 50.02-3.43 50.65-3.6 50.9-3.7L50.9-3.7Q52.15-4.05 53.05-4.35L53.05-4.35 53.65-1.45Q48.65 0.3 45.85 0.3L45.85 0.3Q40.7 0.3 37.6-2.83 34.5-5.95 34.5-12.23 34.5-18.5 37.42-22 40.35-25.5 44.82-25.5 49.3-25.5 51.8-22.6 54.3-19.7 54.3-14.75L54.3-14.75Q54.3-13.4 54.2-11.7ZM38.5-14.55L38.5-14.55 50.7-14.55Q50.7-18.25 49.4-20.25 48.1-22.25 44.87-22.25 41.65-22.25 40.15-20.1 38.65-17.95 38.5-14.55ZM59.45-1.65L60.35-4.45Q63.6-2.95 66.55-2.95 69.5-2.95 71.02-4.13 72.55-5.3 72.55-7.25 72.55-9.2 71.25-10.28 69.95-11.35 68.07-11.95 66.2-12.55 64.32-13.25 62.45-13.95 61.15-15.35 59.85-16.75 59.85-18.9L59.85-18.9Q59.85-22.05 61.9-23.78 63.95-25.5 67.45-25.5 70.95-25.5 73.95-24.45L73.95-24.45 74.3-24.3 73.65-21.1Q70.65-22.25 68.07-22.25 65.5-22.25 64.55-21.45 63.6-20.65 63.6-18.75L63.6-18.75Q63.6-17.55 64.9-16.7 66.2-15.85 68.07-15.23 69.95-14.6 71.82-13.78 73.7-12.95 75-11.3 76.3-9.65 76.3-7.25L76.3-7.25Q76.3-3.75 73.85-1.73 71.4 0.3 67.1 0.3 62.8 0.3 59.45-1.65L59.45-1.65ZM83.69-5.4L83.69-5.4 83.69-22 80.29-22 80.29-25 83.74-25 83.74-32.15 87.49-32.15 87.49-25 93.59-25 93.59-22 87.44-22 87.44-6.1Q87.44-2.75 90.84-2.75L90.84-2.75Q91.64-2.75 93.29-3.05L93.29-3.05 93.84-0.35Q91.79 0.3 89.62 0.3 87.44 0.3 85.57-1.03 83.69-2.35 83.69-5.4ZM103.44 0L99.69 0 99.69-25 103.44-25 103.44 0ZM99.69-35L103.44-35 103.44-30.55 99.69-30.55 99.69-35ZM127.24-12.33Q127.24-17.15 125.34-19.7 123.44-22.25 119.79-22.25 116.14-22.25 114.61-19.83 113.09-17.4 113.09-12.4L113.09-12.4Q113.09-2.95 120.04-2.95L120.04-2.95Q123.69-2.95 125.46-5.23 127.24-7.5 127.24-12.33ZM128.14-3.1Q125.29 0.3 120.09 0.3 114.89 0.3 112.11-3.08 109.34-6.45 109.34-12.53 109.34-18.6 112.01-22.05 114.69-25.5 119.86-25.5 125.04-25.5 128.01-22 130.99-18.5 130.99-12.5 130.99-6.5 128.14-3.1ZM141.44-19.85L141.44-19.85 141.44 0 137.69 0 137.69-25 140.09-25 140.69-22.55Q141.84-23.45 142.56-23.95 143.29-24.45 144.89-24.98 146.49-25.5 148.29-25.5L148.29-25.5Q151.74-25.5 154.01-23.38 156.29-21.25 156.29-17.35L156.29-17.35 156.29 0 152.54 0 152.54-16.25Q152.54-22.3 147.49-22.3L147.49-22.3Q143.89-22.3 141.44-19.85ZM192.13-23L192.13-35 195.88-35 195.88 0 193.68 0 192.43-2.85Q187.83 0.4 184.43 0.4L184.43 0.4Q175.43 0.4 175.43-12.55L175.43-12.55Q175.43-19.9 178.63-22.8L178.63-22.8Q181.48-25.45 185.08-25.45 188.68-25.45 192.13-23L192.13-23ZM192.13-6.2L192.13-6.2 192.13-19.2Q191.08-20.45 189.36-21.35 187.63-22.25 186.18-22.25L186.18-22.25Q182.28-22.25 180.73-19.95 179.18-17.65 179.18-12.75 179.18-7.85 180.73-5.35 182.28-2.85 184.68-2.85L184.68-2.85Q188.28-2.85 192.13-6.2ZM222.33-11.7L222.33-11.7 206.38-11.7Q206.38-6.9 208.65-4.9 210.93-2.9 214.38-2.9L214.38-2.9Q216.13-2.9 216.83-3.08 217.53-3.25 218.15-3.43 218.78-3.6 219.03-3.7L219.03-3.7Q220.28-4.05 221.18-4.35L221.18-4.35 221.78-1.45Q216.78 0.3 213.98 0.3L213.98 0.3Q208.83 0.3 205.73-2.83 202.63-5.95 202.63-12.23 202.63-18.5 205.55-22 208.48-25.5 212.95-25.5 217.43-25.5 219.93-22.6 222.43-19.7 222.43-14.75L222.43-14.75Q222.43-13.4 222.33-11.7ZM206.63-14.55L206.63-14.55 218.83-14.55Q218.83-18.25 217.53-20.25 216.23-22.25 213-22.25 209.78-22.25 208.28-20.1 206.78-17.95 206.63-14.55ZM240.07-1.65L240.97-4.45Q244.22-2.95 247.17-2.95 250.12-2.95 251.65-4.13 253.17-5.3 253.17-7.25 253.17-9.2 251.87-10.28 250.57-11.35 248.7-11.95 246.82-12.55 244.95-13.25 243.07-13.95 241.77-15.35 240.47-16.75 240.47-18.9L240.47-18.9Q240.47-22.05 242.52-23.78 244.57-25.5 248.07-25.5 251.57-25.5 254.57-24.45L254.57-24.45 254.92-24.3 254.27-21.1Q251.27-22.25 248.7-22.25 246.12-22.25 245.17-21.45 244.22-20.65 244.22-18.75L244.22-18.75Q244.22-17.55 245.52-16.7 246.82-15.85 248.7-15.23 250.57-14.6 252.45-13.78 254.32-12.95 255.62-11.3 256.92-9.65 256.92-7.25L256.92-7.25Q256.92-3.75 254.47-1.73 252.02 0.3 247.72 0.3 243.42 0.3 240.07-1.65L240.07-1.65ZM264.32-5.4L264.32-5.4 264.32-22 260.92-22 260.92-25 264.37-25 264.37-32.15 268.12-32.15 268.12-25 274.22-25 274.22-22 268.07-22 268.07-6.1Q268.07-2.75 271.47-2.75L271.47-2.75Q272.27-2.75 273.92-3.05L273.92-3.05 274.47-0.35Q272.42 0.3 270.25 0.3 268.07 0.3 266.2-1.03 264.32-2.35 264.32-5.4ZM296.47-12.33Q296.47-17.15 294.57-19.7 292.67-22.25 289.02-22.25 285.37-22.25 283.84-19.83 282.32-17.4 282.32-12.4L282.32-12.4Q282.32-2.95 289.27-2.95L289.27-2.95Q292.92-2.95 294.69-5.23 296.47-7.5 296.47-12.33ZM297.37-3.1Q294.52 0.3 289.32 0.3 284.12 0.3 281.34-3.08 278.57-6.45 278.57-12.53 278.57-18.6 281.24-22.05 283.92-25.5 289.09-25.5 294.27-25.5 297.24-22 300.22-18.5 300.22-12.5 300.22-6.5 297.37-3.1ZM321.62-3.9L321.62-3.9 322.37-0.95Q318.37 0.25 315.32 0.25L315.32 0.25Q309.97 0.25 307.27-3.25 304.57-6.75 304.57-12.9 304.57-19.05 307.37-22.28 310.17-25.5 315.62-25.5L315.62-25.5Q317.97-25.5 322.22-24.3L322.22-24.3 320.72-21.4Q317.97-22.2 315.77-22.2L315.77-22.2Q311.97-22.2 310.29-19.95 308.62-17.7 308.62-12.85L308.62-12.85Q308.62-3 315.67-3L315.67-3Q318.47-3 321.62-3.9ZM328.56 0L328.56-35 332.31-35 332.31-14.4 343.01-25 347.76-25 337.16-14.85 348.31 0 344.06 0 334.96-12.5 332.31-9.8 332.31 0 328.56 0Z" opacity="1" transform="matrix(1,0,0,1,0,0)" fill="#89939e" class="wordmark-text-0" data-fill-palette-color="primary" id="text-0"></path></svg></g></svg></g></svg></g></svg></g><g transform="matrix(1,0,0,1,150.64400586241032,0)"><svg viewBox="0 0 94.23198827517935 94.23198827517935" height="94.23198827517935" width="94.23198827517935"><g><svg></svg></g><g id="icon-0"><svg viewBox="0 0 94.23198827517935 94.23198827517935" height="94.23198827517935" width="94.23198827517935"><g><path d="M0 47.116c0-26.021 21.095-47.116 47.116-47.116 26.021 0 47.116 21.095 47.116 47.116 0 26.021-21.095 47.116-47.116 47.116-26.021 0-47.116-21.095-47.116-47.116zM47.116 90.532c23.978 0 43.416-19.438 43.416-43.416 0-23.978-19.438-43.416-43.416-43.416-23.978 0-43.416 19.438-43.416 43.416 0 23.978 19.438 43.416 43.416 43.416z" data-fill-palette-color="accent" fill="#dedede" stroke="transparent"></path></g><g transform="matrix(1,0,0,1,21.782316101980708,25.058429925343397)"><svg viewBox="0 0 50.66735607121793 44.11512842449255" height="44.11512842449255" width="50.66735607121793"><g><svg xmlns="http://www.w3.org/2000/svg" xmlns:xlink="http://www.w3.org/1999/xlink" version="1.1" x="0" y="0" viewBox="1.9809999999999999 9.129000000000001 94.99800119343878 82.713" enable-background="new 0 0 100 100" xml:space="preserve" height="44.11512842449255" width="50.66735607121793" class="icon-cg-0" data-fill-palette-color="accent" id="cg-0"><path fill-rule="evenodd" clip-rule="evenodd" d="M40.699 62.535h35.575c4.942 0 8.948-4.006 8.948-8.947v-5.92c0-4.942-4.006-8.948-8.948-8.948H40.699c-4.942 0-8.948 4.006-8.948 8.948v5.92C31.751 58.53 35.757 62.535 40.699 62.535zM40.7 32.944h35.574c4.942 0 8.949-4.006 8.949-8.948v-5.919c0-4.942-4.006-8.948-8.949-8.948H40.7c-4.942 0-8.949 4.006-8.949 8.948v5.919C31.751 28.938 35.757 32.944 40.7 32.944zM91.371 68.228H25.836V21.494c0.012-0.151-0.032-0.436-0.032-0.588 0-3.099-2.395-5.712-5.497-5.712H7.595c-3.1 0-5.614 2.761-5.614 5.859 0 3.101 2.513 5.985 5.614 5.985H14v41.19h-0.433c-3.098 0-5.609 2.759-5.609 5.856 0 3.099 2.511 5.98 5.609 5.98h6.587c0 0.012-0.004 0.023-0.004 0.036 0 6.483 5.258 11.742 11.744 11.742 6.486 0 11.744-5.258 11.744-11.742 0-0.012-0.004-0.023-0.004-0.036h17.949c0 0.012-0.004 0.023-0.004 0.036 0 6.483 5.258 11.742 11.744 11.742 6.485 0 11.744-5.258 11.744-11.742 0-0.012-0.004-0.023-0.004-0.036h6.306c3.098 0 5.61-2.88 5.61-5.98C96.981 70.987 94.469 68.228 91.371 68.228z" fill="#dedede" data-fill-palette-color="accent"></path></svg></g></svg></g></svg></g></svg></g><g></g></svg></g><defs></defs></svg><rect width="395.52" height="154.63751802387463" fill="none" stroke="none" visibility="hidden"></rect></g></svg></g></svg>